<svg width="1366" height="683" xmlns="http://www.w3.org/2000/svg"><g><path d="M-42,-93L-68,356L-43,23Z" fill="#ffffff" stroke="#ffffff" fill-opacity="1" stroke-opacity="1"/><path d="M-42,-93L-43,23L132,-53Z" fill="#fefefe" stroke="#fefefe" fill-opacity="1" stroke-opacity="1"/><path d="M-42,-93L132,-53L201,-116Z" fill="#fafafa" stroke="#fafafa" fill-opacity="1" stroke-opacity="1"/><path d="M132,-53L-43,23L43,106Z" fill="#fdfdfd" stroke="#fdfdfd" fill-opacity="1" stroke-opacity="1"/><path d="M132,-53L43,106L268,80Z" fill="#f8f8f8" stroke="#f8f8f8" fill-opacity="1" stroke-opacity="1"/><path d="M132,-53L268,80L201,-116Z" fill="#f4f4f4" stroke="#f4f4f4" fill-opacity="1" stroke-opacity="1"/><path d="M201,-116L268,80L356,-125Z" fill="#eeeeee" stroke="#eeeeee" fill-opacity="1" stroke-opacity="1"/><path d="M356,-125L268,80L421,103Z" fill="#e8e8e8" stroke="#e8e8e8" fill-opacity="1" stroke-opacity="1"/><path d="M356,-125L421,103L486,-68Z" fill="#e1e1e1" stroke="#e1e1e1" fill-opacity="1" stroke-opacity="1"/><path d="M356,-125L486,-68L683,-56Z" fill="#d7d7d7" stroke="#d7d7d7" fill-opacity="1" stroke-opacity="1"/><path d="M356,-125L683,-56L836,-98Z" fill="#c9c9c9" stroke="#c9c9c9" fill-opacity="1" stroke-opacity="1"/><path d="M356,-125L836,-98L1413,-108Z" fill="#adadad" stroke="#adadad" fill-opacity="1" stroke-opacity="1"/><path d="M486,-68L421,103L514,73Z" fill="#dcdcdc" stroke="#dcdcdc" fill-opacity="1" stroke-opacity="1"/><path d="M486,-68L514,73L683,-56Z" fill="#d1d1d1" stroke="#d1d1d1" fill-opacity="1" stroke-opacity="1"/><path d="M683,-56L514,73L735,50Z" fill="#c6c6c6" stroke="#c6c6c6" fill-opacity="1" stroke-opacity="1"/><path d="M683,-56L735,50L836,-98Z" fill="#bababa" stroke="#bababa" fill-opacity="1" stroke-opacity="1"/><path d="M836,-98L735,50L793,115Z" fill="#b6b6b6" stroke="#b6b6b6" fill-opacity="1" stroke-opacity="1"/><path d="M836,-98L793,115L965,71Z" fill="#aeaeae" stroke="#aeaeae" fill-opacity="1" stroke-opacity="1"/><path d="M836,-98L965,71L1015,-30Z" fill="#a5a5a5" stroke="#a5a5a5" fill-opacity="1" stroke-opacity="1"/><path d="M836,-98L1015,-30L1070,-83Z" fill="#9f9f9f" stroke="#9f9f9f" fill-opacity="1" stroke-opacity="1"/><path d="M836,-98L1070,-83L1283,-99Z" fill="#929292" stroke="#929292" fill-opacity="1" stroke-opacity="1"/><path d="M836,-98L1283,-99L1413,-108Z" fill="#848484" stroke="#848484" fill-opacity="1" stroke-opacity="1"/><path d="M1015,-30L965,71L1120,50Z" fill="#979797" stroke="#979797" fill-opacity="1" stroke-opacity="1"/><path d="M1015,-30L1120,50L1070,-83Z" fill="#929292" stroke="#929292" fill-opacity="1" stroke-opacity="1"/><path d="M1070,-83L1120,50L1283,-99Z" fill="#878787" stroke="#878787" fill-opacity="1" stroke-opacity="1"/><path d="M1283,-99L1120,50L1334,17Z" fill="#808080" stroke="#808080" fill-opacity="1" stroke-opacity="1"/><path d="M1283,-99L1334,17L1413,-108Z" fill="#808080" stroke="#808080" fill-opacity="1" stroke-opacity="1"/><path d="M1413,-108L1334,17L1530,36Z" fill="#808080" stroke="#808080" fill-opacity="1" stroke-opacity="1"/><path d="M1413,-108L1530,36L1613,-29Z" fill="#808080" stroke="#808080" fill-opacity="1" stroke-opacity="1"/><path d="M1613,-29L1530,36L1531,276Z" fill="#808080" stroke="#808080" fill-opacity="1" stroke-opacity="1"/><path d="M1613,-29L1531,276L1554,351Z" fill="#767676" stroke="#767676" fill-opacity="1" stroke-opacity="1"/><path d="M1613,-29L1554,351L1577,641Z" fill="#555555" stroke="#555555" fill-opacity="1" stroke-opacity="1"/><path d="M-43,23L-68,356L-21,202Z" fill="#f7f7f7" stroke="#f7f7f7" fill-opacity="1" stroke-opacity="1"/><path d="M-43,23L-21,202L43,106Z" fill="#ffffff" stroke="#ffffff" fill-opacity="1" stroke-opacity="1"/><path d="M43,106L-21,202L53,245Z" fill="#f8f8f8" stroke="#f8f8f8" fill-opacity="1" stroke-opacity="1"/><path d="M43,106L53,245L202,215Z" fill="#f3f3f3" stroke="#f3f3f3" fill-opacity="1" stroke-opacity="1"/><path d="M43,106L202,215L268,80Z" fill="#f6f6f6" stroke="#f6f6f6" fill-opacity="1" stroke-opacity="1"/><path d="M268,80L202,215L332,211Z" fill="#ebebeb" stroke="#ebebeb" fill-opacity="1" stroke-opacity="1"/><path d="M268,80L332,211L421,103Z" fill="#e9e9e9" stroke="#e9e9e9" fill-opacity="1" stroke-opacity="1"/><path d="M421,103L332,211L541,280Z" fill="#d7d7d7" stroke="#d7d7d7" fill-opacity="1" stroke-opacity="1"/><path d="M421,103L541,280L514,73Z" fill="#dadada" stroke="#dadada" fill-opacity="1" stroke-opacity="1"/><path d="M514,73L541,280L657,224Z" fill="#c7c7c7" stroke="#c7c7c7" fill-opacity="1" stroke-opacity="1"/><path d="M514,73L657,224L735,50Z" fill="#c7c7c7" stroke="#c7c7c7" fill-opacity="1" stroke-opacity="1"/><path d="M735,50L657,224L771,191Z" fill="#bdbdbd" stroke="#bdbdbd" fill-opacity="1" stroke-opacity="1"/><path d="M735,50L771,191L793,115Z" fill="#b8b8b8" stroke="#b8b8b8" fill-opacity="1" stroke-opacity="1"/><path d="M793,115L771,191L937,179Z" fill="#afafaf" stroke="#afafaf" fill-opacity="1" stroke-opacity="1"/><path d="M793,115L937,179L965,71Z" fill="#aaaaaa" stroke="#aaaaaa" fill-opacity="1" stroke-opacity="1"/><path d="M965,71L937,179L1084,186Z" fill="#9c9c9c" stroke="#9c9c9c" fill-opacity="1" stroke-opacity="1"/><path d="M965,71L1084,186L1120,50Z" fill="#939393" stroke="#939393" fill-opacity="1" stroke-opacity="1"/><path d="M1120,50L1084,186L1329,208Z" fill="#848484" stroke="#848484" fill-opacity="1" stroke-opacity="1"/><path d="M1120,50L1329,208L1334,17Z" fill="#808080" stroke="#808080" fill-opacity="1" stroke-opacity="1"/><path d="M1334,17L1329,208L1393,89Z" fill="#808080" stroke="#808080" fill-opacity="1" stroke-opacity="1"/><path d="M1334,17L1393,89L1530,36Z" fill="#808080" stroke="#808080" fill-opacity="1" stroke-opacity="1"/><path d="M1393,89L1329,208L1469,230Z" fill="#7b7b7b" stroke="#7b7b7b" fill-opacity="1" stroke-opacity="1"/><path d="M1393,89L1469,230L1530,36Z" fill="#808080" stroke="#808080" fill-opacity="1" stroke-opacity="1"/><path d="M1530,36L1469,230L1531,276Z" fill="#7a7a7a" stroke="#7a7a7a" fill-opacity="1" stroke-opacity="1"/><path d="M-21,202L-68,356L53,245Z" fill="#e4e4e4" stroke="#e4e4e4" fill-opacity="1" stroke-opacity="1"/><path d="M53,245L-68,356L132,416Z" fill="#cdcdcd" stroke="#cdcdcd" fill-opacity="1" stroke-opacity="1"/><path d="M53,245L132,416L202,215Z" fill="#d6d6d6" stroke="#d6d6d6" fill-opacity="1" stroke-opacity="1"/><path d="M202,215L132,416L250,406Z" fill="#c3c3c3" stroke="#c3c3c3" fill-opacity="1" stroke-opacity="1"/><path d="M202,215L250,406L332,211Z" fill="#d1d1d1" stroke="#d1d1d1" fill-opacity="1" stroke-opacity="1"/><path d="M332,211L250,406L417,385Z" fill="#bbbbbb" stroke="#bbbbbb" fill-opacity="1" stroke-opacity="1"/><path d="M332,211L417,385L541,280Z" fill="#bebebe" stroke="#bebebe" fill-opacity="1" stroke-opacity="1"/><path d="M541,280L417,385L535,317Z" fill="#acacac" stroke="#acacac" fill-opacity="1" stroke-opacity="1"/><path d="M541,280L535,317L657,224Z" fill="#b2b2b2" stroke="#b2b2b2" fill-opacity="1" stroke-opacity="1"/><path d="M657,224L535,317L680,398Z" fill="#a0a0a0" stroke="#a0a0a0" fill-opacity="1" stroke-opacity="1"/><path d="M657,224L680,398L808,354Z" fill="#929292" stroke="#929292" fill-opacity="1" stroke-opacity="1"/><path d="M657,224L808,354L771,191Z" fill="#a3a3a3" stroke="#a3a3a3" fill-opacity="1" stroke-opacity="1"/><path d="M771,191L808,354L917,320Z" fill="#909090" stroke="#909090" fill-opacity="1" stroke-opacity="1"/><path d="M771,191L917,320L937,179Z" fill="#9d9d9d" stroke="#9d9d9d" fill-opacity="1" stroke-opacity="1"/><path d="M937,179L917,320L1084,186Z" fill="#909090" stroke="#909090" fill-opacity="1" stroke-opacity="1"/><path d="M1084,186L917,320L1106,383Z" fill="#727272" stroke="#727272" fill-opacity="1" stroke-opacity="1"/><path d="M1084,186L1106,383L1307,340Z" fill="#606060" stroke="#606060" fill-opacity="1" stroke-opacity="1"/><path d="M1084,186L1307,340L1329,208Z" fill="#6c6c6c" stroke="#6c6c6c" fill-opacity="1" stroke-opacity="1"/><path d="M1329,208L1307,340L1399,324Z" fill="#5e5e5e" stroke="#5e5e5e" fill-opacity="1" stroke-opacity="1"/><path d="M1329,208L1399,324L1469,230Z" fill="#696969" stroke="#696969" fill-opacity="1" stroke-opacity="1"/><path d="M1469,230L1399,324L1531,276Z" fill="#626262" stroke="#626262" fill-opacity="1" stroke-opacity="1"/><path d="M1531,276L1399,324L1554,351Z" fill="#565656" stroke="#565656" fill-opacity="1" stroke-opacity="1"/><path d="M-68,356L-46,651L-46,535Z" fill="#9c9c9c" stroke="#9c9c9c" fill-opacity="1" stroke-opacity="1"/><path d="M-68,356L-46,535L33,496Z" fill="#aeaeae" stroke="#aeaeae" fill-opacity="1" stroke-opacity="1"/><path d="M-68,356L33,496L132,416Z" fill="#b8b8b8" stroke="#b8b8b8" fill-opacity="1" stroke-opacity="1"/><path d="M132,416L33,496L89,632Z" fill="#989898" stroke="#989898" fill-opacity="1" stroke-opacity="1"/><path d="M132,416L89,632L264,470Z" fill="#979797" stroke="#979797" fill-opacity="1" stroke-opacity="1"/><path d="M132,416L264,470L250,406Z" fill="#ababab" stroke="#ababab" fill-opacity="1" stroke-opacity="1"/><path d="M250,406L264,470L417,385Z" fill="#a6a6a6" stroke="#a6a6a6" fill-opacity="1" stroke-opacity="1"/><path d="M417,385L264,470L349,533Z" fill="#989898" stroke="#989898" fill-opacity="1" stroke-opacity="1"/><path d="M417,385L349,533L472,544Z" fill="#888888" stroke="#888888" fill-opacity="1" stroke-opacity="1"/><path d="M417,385L472,544L535,317Z" fill="#989898" stroke="#989898" fill-opacity="1" stroke-opacity="1"/><path d="M535,317L472,544L680,398Z" fill="#8b8b8b" stroke="#8b8b8b" fill-opacity="1" stroke-opacity="1"/><path d="M680,398L472,544L701,545Z" fill="#6d6d6d" stroke="#6d6d6d" fill-opacity="1" stroke-opacity="1"/><path d="M680,398L701,545L868,469Z" fill="#666666" stroke="#666666" fill-opacity="1" stroke-opacity="1"/><path d="M680,398L868,469L808,354Z" fill="#747474" stroke="#747474" fill-opacity="1" stroke-opacity="1"/><path d="M808,354L868,469L917,320Z" fill="#727272" stroke="#727272" fill-opacity="1" stroke-opacity="1"/><path d="M917,320L868,469L1106,383Z" fill="#636363" stroke="#636363" fill-opacity="1" stroke-opacity="1"/><path d="M1106,383L868,469L971,567Z" fill="#494949" stroke="#494949" fill-opacity="1" stroke-opacity="1"/><path d="M1106,383L971,567L1148,531Z" fill="#353535" stroke="#353535" fill-opacity="1" stroke-opacity="1"/><path d="M1106,383L1148,531L1244,477Z" fill="#343434" stroke="#343434" fill-opacity="1" stroke-opacity="1"/><path d="M1106,383L1244,477L1307,340Z" fill="#3f3f3f" stroke="#3f3f3f" fill-opacity="1" stroke-opacity="1"/><path d="M1307,340L1244,477L1398,481Z" fill="#373737" stroke="#373737" fill-opacity="1" stroke-opacity="1"/><path d="M1307,340L1398,481L1399,324Z" fill="#444444" stroke="#444444" fill-opacity="1" stroke-opacity="1"/><path d="M1399,324L1398,481L1554,351Z" fill="#434343" stroke="#434343" fill-opacity="1" stroke-opacity="1"/><path d="M1554,351L1398,481L1547,571Z" fill="#2d2d2d" stroke="#2d2d2d" fill-opacity="1" stroke-opacity="1"/><path d="M1554,351L1547,571L1577,641Z" fill="#1a1a1a" stroke="#1a1a1a" fill-opacity="1" stroke-opacity="1"/><path d="M-46,535L-46,651L89,632Z" fill="#8f8f8f" stroke="#8f8f8f" fill-opacity="1" stroke-opacity="1"/><path d="M-46,535L89,632L33,496Z" fill="#929292" stroke="#929292" fill-opacity="1" stroke-opacity="1"/><path d="M264,470L89,632L195,656Z" fill="#878787" stroke="#878787" fill-opacity="1" stroke-opacity="1"/><path d="M264,470L195,656L349,533Z" fill="#838383" stroke="#838383" fill-opacity="1" stroke-opacity="1"/><path d="M349,533L195,656L379,663Z" fill="#7a7a7a" stroke="#7a7a7a" fill-opacity="1" stroke-opacity="1"/><path d="M349,533L379,663L472,544Z" fill="#757575" stroke="#757575" fill-opacity="1" stroke-opacity="1"/><path d="M472,544L379,663L524,695Z" fill="#6b6b6b" stroke="#6b6b6b" fill-opacity="1" stroke-opacity="1"/><path d="M472,544L524,695L643,664Z" fill="#606060" stroke="#606060" fill-opacity="1" stroke-opacity="1"/><path d="M472,544L643,664L701,545Z" fill="#5c5c5c" stroke="#5c5c5c" fill-opacity="1" stroke-opacity="1"/><path d="M701,545L643,664L867,629Z" fill="#4b4b4b" stroke="#4b4b4b" fill-opacity="1" stroke-opacity="1"/><path d="M701,545L867,629L868,469Z" fill="#484848" stroke="#484848" fill-opacity="1" stroke-opacity="1"/><path d="M868,469L867,629L971,567Z" fill="#3e3e3e" stroke="#3e3e3e" fill-opacity="1" stroke-opacity="1"/><path d="M971,567L867,629L987,669Z" fill="#323232" stroke="#323232" fill-opacity="1" stroke-opacity="1"/><path d="M971,567L987,669L1081,661Z" fill="#272727" stroke="#272727" fill-opacity="1" stroke-opacity="1"/><path d="M971,567L1081,661L1148,531Z" fill="#232323" stroke="#232323" fill-opacity="1" stroke-opacity="1"/><path d="M1148,531L1081,661L1220,701Z" fill="#151515" stroke="#151515" fill-opacity="1" stroke-opacity="1"/><path d="M1148,531L1220,701L1244,477Z" fill="#141414" stroke="#141414" fill-opacity="1" stroke-opacity="1"/><path d="M1244,477L1220,701L1398,481Z" fill="#141414" stroke="#141414" fill-opacity="1" stroke-opacity="1"/><path d="M1398,481L1220,701L1478,620Z" fill="#101010" stroke="#101010" fill-opacity="1" stroke-opacity="1"/><path d="M1398,481L1478,620L1547,571Z" fill="#141414" stroke="#141414" fill-opacity="1" stroke-opacity="1"/><path d="M1547,571L1478,620L1577,641Z" fill="#0f0f0f" stroke="#0f0f0f" fill-opacity="1" stroke-opacity="1"/><path d="M-46,651L-27,826L89,632Z" fill="#858585" stroke="#858585" fill-opacity="1" stroke-opacity="1"/><path d="M89,632L-27,826L39,863Z" fill="#7e7e7e" stroke="#7e7e7e" fill-opacity="1" stroke-opacity="1"/><path d="M89,632L39,863L195,656Z" fill="#7f7f7f" stroke="#7f7f7f" fill-opacity="1" stroke-opacity="1"/><path d="M195,656L39,863L282,798Z" fill="#777777" stroke="#777777" fill-opacity="1" stroke-opacity="1"/><path d="M195,656L282,798L379,663Z" fill="#747474" stroke="#747474" fill-opacity="1" stroke-opacity="1"/><path d="M379,663L282,798L335,865Z" fill="#6a6a6a" stroke="#6a6a6a" fill-opacity="1" stroke-opacity="1"/><path d="M379,663L335,865L497,775Z" fill="#646464" stroke="#646464" fill-opacity="1" stroke-opacity="1"/><path d="M379,663L497,775L524,695Z" fill="#636363" stroke="#636363" fill-opacity="1" stroke-opacity="1"/><path d="M524,695L497,775L635,818Z" fill="#535353" stroke="#535353" fill-opacity="1" stroke-opacity="1"/><path d="M524,695L635,818L643,664Z" fill="#505050" stroke="#505050" fill-opacity="1" stroke-opacity="1"/><path d="M643,664L635,818L824,845Z" fill="#404040" stroke="#404040" fill-opacity="1" stroke-opacity="1"/><path d="M643,664L824,845L867,629Z" fill="#3d3d3d" stroke="#3d3d3d" fill-opacity="1" stroke-opacity="1"/><path d="M867,629L824,845L928,845Z" fill="#2d2d2d" stroke="#2d2d2d" fill-opacity="1" stroke-opacity="1"/><path d="M867,629L928,845L987,669Z" fill="#2c2c2c" stroke="#2c2c2c" fill-opacity="1" stroke-opacity="1"/><path d="M987,669L928,845L1087,805Z" fill="#1c1c1c" stroke="#1c1c1c" fill-opacity="1" stroke-opacity="1"/><path d="M987,669L1087,805L1081,661Z" fill="#1a1a1a" stroke="#1a1a1a" fill-opacity="1" stroke-opacity="1"/><path d="M1081,661L1087,805L1220,701Z" fill="#0f0f0f" stroke="#0f0f0f" fill-opacity="1" stroke-opacity="1"/><path d="M1220,701L1087,805L1305,788Z" fill="#020202" stroke="#020202" fill-opacity="1" stroke-opacity="1"/><path d="M1220,701L1305,788L1478,620Z" fill="#060606" stroke="#060606" fill-opacity="1" stroke-opacity="1"/><path d="M1478,620L1305,788L1426,801Z" fill="#030303" stroke="#030303" fill-opacity="1" stroke-opacity="1"/><path d="M1478,620L1426,801L1577,641Z" fill="#080808" stroke="#080808" fill-opacity="1" stroke-opacity="1"/><path d="M1577,641L1426,801L1516,882Z" fill="#000000" stroke="#000000" fill-opacity="1" stroke-opacity="1"/><path d="M39,863L1516,882L335,865Z" fill="#494949" stroke="#494949" fill-opacity="1" stroke-opacity="1"/><path d="M39,863L335,865L282,798Z" fill="#737373" stroke="#737373" fill-opacity="1" stroke-opacity="1"/><path d="M335,865L1516,882L824,845Z" fill="#2b2b2b" stroke="#2b2b2b" fill-opacity="1" stroke-opacity="1"/><path d="M335,865L824,845L635,818Z" fill="#4c4c4c" stroke="#4c4c4c" fill-opacity="1" stroke-opacity="1"/><path d="M335,865L635,818L497,775Z" fill="#5a5a5a" stroke="#5a5a5a" fill-opacity="1" stroke-opacity="1"/><path d="M824,845L1516,882L928,845Z" fill="#0f0f0f" stroke="#0f0f0f" fill-opacity="1" stroke-opacity="1"/><path d="M928,845L1516,882L1087,805Z" fill="#050505" stroke="#050505" fill-opacity="1" stroke-opacity="1"/><path d="M1087,805L1516,882L1305,788Z" fill="#000000" stroke="#000000" fill-opacity="1" stroke-opacity="1"/><path d="M1305,788L1516,882L1426,801Z" fill="#000000" stroke="#000000" fill-opacity="1" stroke-opacity="1"/></g></svg>